<svg width="58" height="60" viewBox="0 0 58 60" fill="none" xmlns="http://www.w3.org/2000/svg">
<line x1="3.5" y1="47.1116" x2="3.5" y2="13.1116" stroke="white" stroke-width="5"/>
<line y1="-2.5" x2="17.2206" y2="-2.5" transform="matrix(-0.0135913 -0.999908 0.999904 -0.0138256 15.2344 56.3306)" stroke="white" stroke-width="5"/>
<line x1="22.4375" y1="45.7095" x2="22.4375" y2="12.6616" stroke="white" stroke-width="5"/>
<rect x="3.52039" width="12.7537" height="12.7537" transform="matrix(0.704079 -0.710122 0.704079 0.710122 2.04176 15.6115)" stroke="white" stroke-width="5"/>
<path d="M2.70325 45.0013L13.5859 56.1115L24.0016 45.0013" stroke="white" stroke-width="5"/>
<line x1="34.582" y1="45.9252" x2="34.582" y2="12.8773" stroke="white" stroke-width="5"/>
<line x1="55.5001" y1="47.1284" x2="55.2676" y2="12.6784" stroke="white" stroke-width="5"/>
<rect x="3.52039" width="13.4638" height="13.4638" transform="matrix(0.704079 -0.710122 0.704079 0.710122 33.0418 15.6115)" stroke="white" stroke-width="5"/>
<path d="M34.5333 45.0013L45.416 56.1115L56.0657 45.0013" stroke="white" stroke-width="5"/>
<line x1="45.5" y1="56.1077" x2="45.5" y2="39.1116" stroke="white" stroke-width="5"/>
<path d="M55.3629 15.2749C55.3629 31.4409 44.0192 45.018 29.1495 45.018C14.2798 45.018 3.4043 30.7327 3.4043 14.5668" stroke="white" stroke-width="5"/>
<path d="M45.2995 21.1764C45.2995 29.5201 38.2544 35.5758 29.8524 35.5758C21.4504 35.5758 13.7031 29.7562 13.7031 21.4124" stroke="white" stroke-width="5"/>
<path d="M34.7655 12.9143V20.9884C34.7655 24.0907 32.2507 26.6056 29.1484 26.6056V26.6056C26.0461 26.6056 23.5312 24.0907 23.5312 20.9884V12.9143" stroke="white" stroke-width="5"/>
</svg>
