<svg width="40" height="40" viewBox="0 0 40 40" fill="none" xmlns="http://www.w3.org/2000/svg">
<rect width="40" height="40" rx="20" fill="#32FF84"/>
<path d="M18.875 28H13.4886V10.5455H19.1136C20.8068 10.5455 22.2557 10.8949 23.4602 11.5938C24.6648 12.2869 25.5881 13.2841 26.2301 14.5852C26.8722 15.8807 27.1932 17.4318 27.1932 19.2386C27.1932 21.0568 26.8693 22.6222 26.2216 23.9347C25.5739 25.2415 24.6307 26.2472 23.392 26.9517C22.1534 27.6506 20.6477 28 18.875 28ZM15.6023 26.125H18.7386C20.1818 26.125 21.3778 25.8466 22.3267 25.2898C23.2756 24.733 23.983 23.9403 24.4489 22.9119C24.9148 21.8835 25.1477 20.6591 25.1477 19.2386C25.1477 17.8295 24.9176 16.6165 24.4574 15.5994C23.9972 14.5767 23.3097 13.7926 22.3949 13.2472C21.4801 12.696 20.3409 12.4205 18.9773 12.4205H15.6023V26.125Z" fill="black"/>
</svg>
