<svg width="190" height="103" viewBox="0 0 190 103" fill="none" xmlns="http://www.w3.org/2000/svg">
<g clip-path="url(#clip0_3_21)">
<path d="M0 41C0 38.2386 2.23858 36 5 36H9.33333L9.60623 36.5206C13.8455 44.6086 25.5266 44.3003 29.3333 36H35C37.7614 36 40 38.2386 40 41V98C40 100.761 37.7614 103 35 103H5C2.23858 103 0 100.761 0 98V41Z" fill="#2F3545"/>
<path d="M50 76.9C50 73.2458 50 71.4187 50.9093 70.125C51.2413 69.6526 51.6526 69.2413 52.125 68.9093C53.4187 68 55.2458 68 58.9 68H59.3333L59.98 68.6445C65.4084 74.0547 74.2769 73.7593 79.3333 68H81.1C84.7542 68 86.5813 68 87.875 68.9093C88.3474 69.2413 88.7587 69.6526 89.0907 70.125C90 71.4187 90 73.2458 90 76.9V94.1C90 97.7542 90 99.5813 89.0907 100.875C88.7587 101.347 88.3474 101.759 87.875 102.091C86.5813 103 84.7542 103 81.1 103H58.9C55.2458 103 53.4187 103 52.125 102.091C51.6526 101.759 51.2413 101.347 50.9093 100.875C50 99.5813 50 97.7542 50 94.1V76.9Z" fill="#B572CD"/>
<path d="M100 5C100 2.23858 102.239 0 105 0H109.333L109.464 0.384168C112.742 9.99788 126.43 9.73323 129.333 0H135C137.761 0 140 2.23858 140 5V98C140 100.761 137.761 103 135 103H105C102.239 103 100 100.761 100 98V5Z" fill="#2F3545"/>
<path d="M150 48C150 45.2386 152.239 43 155 43H159.333L159.657 43.5533C164.134 51.2021 175.293 50.8883 179.333 43H185C187.761 43 190 45.2386 190 48V98C190 100.761 187.761 103 185 103H155C152.239 103 150 100.761 150 98V48Z" fill="#2F3545"/>
</g>
<defs>
<clipPath id="clip0_3_21">
<rect width="190" height="103" fill="white"/>
</clipPath>
</defs>
</svg>
