<svg width="40" height="40" viewBox="0 0 40 40" fill="none" xmlns="http://www.w3.org/2000/svg">
<rect width="40" height="40" rx="20" fill="#FF7C32"/>
<path d="M12.4759 17.2727C12.4077 16.697 12.1312 16.25 11.6463 15.9318C11.1615 15.6136 10.5668 15.4545 9.86222 15.4545C9.34706 15.4545 8.89631 15.5379 8.50994 15.7045C8.12737 15.8712 7.82813 16.1004 7.61222 16.392C7.40009 16.6837 7.29403 17.0152 7.29403 17.3864C7.29403 17.697 7.3679 17.964 7.51562 18.1875C7.66714 18.4072 7.86032 18.5909 8.09517 18.7386C8.33002 18.8826 8.57623 19.0019 8.83381 19.0966C9.09138 19.1875 9.32812 19.2614 9.54403 19.3182L10.7259 19.6364C11.0289 19.7159 11.366 19.8258 11.7372 19.9659C12.1122 20.1061 12.4702 20.2973 12.8111 20.5398C13.1558 20.7784 13.4399 21.0852 13.6634 21.4602C13.8868 21.8352 13.9986 22.2955 13.9986 22.8409C13.9986 23.4697 13.8338 24.0379 13.5043 24.5455C13.1785 25.053 12.7012 25.4564 12.0724 25.7557C11.4474 26.0549 10.688 26.2045 9.79403 26.2045C8.9607 26.2045 8.23911 26.0701 7.62926 25.8011C7.0232 25.5322 6.54593 25.1572 6.19744 24.6761C5.85275 24.1951 5.65767 23.6364 5.61222 23H7.06676C7.10464 23.4394 7.25237 23.803 7.50994 24.0909C7.77131 24.375 8.10085 24.5871 8.49858 24.7273C8.90009 24.8636 9.33191 24.9318 9.79403 24.9318C10.3319 24.9318 10.8149 24.8447 11.2429 24.6705C11.6709 24.4924 12.0099 24.2462 12.2599 23.9318C12.5099 23.6136 12.6349 23.2424 12.6349 22.8182C12.6349 22.4318 12.527 22.1174 12.3111 21.875C12.0952 21.6326 11.8111 21.4356 11.4588 21.2841C11.1065 21.1326 10.7259 21 10.3168 20.8864L8.88494 20.4773C7.97585 20.2159 7.25616 19.8428 6.72585 19.358C6.19555 18.8731 5.9304 18.2386 5.9304 17.4545C5.9304 16.803 6.10653 16.2348 6.45881 15.75C6.81487 15.2614 7.29214 14.8826 7.89062 14.6136C8.4929 14.3409 9.16525 14.2045 9.90767 14.2045C10.6577 14.2045 11.3243 14.339 11.9077 14.608C12.491 14.8731 12.9531 15.2367 13.294 15.6989C13.6387 16.161 13.8205 16.6856 13.8395 17.2727H12.4759ZM19.429 26.1591C18.6638 26.1591 18.0047 26.0189 17.4517 25.7386C16.8987 25.4583 16.4725 25.0739 16.1733 24.5852C15.8741 24.0966 15.7244 23.5379 15.7244 22.9091C15.7244 22.4242 15.8267 21.9943 16.0312 21.6193C16.2396 21.2405 16.5256 20.8902 16.8892 20.5682C17.2566 20.2424 17.679 19.9167 18.1562 19.5909L19.8381 18.3409C20.1676 18.125 20.4309 17.8939 20.6278 17.6477C20.8286 17.4015 20.929 17.0795 20.929 16.6818C20.929 16.3864 20.7983 16.1004 20.5369 15.8239C20.2794 15.5473 19.9403 15.4091 19.5199 15.4091C19.2244 15.4091 18.9631 15.4848 18.7358 15.6364C18.5123 15.7841 18.3362 15.9735 18.2074 16.2045C18.0824 16.4318 18.0199 16.6667 18.0199 16.9091C18.0199 17.1818 18.0938 17.4583 18.2415 17.7386C18.393 18.0152 18.5843 18.2992 18.8153 18.5909C19.0502 18.8788 19.2926 19.1742 19.5426 19.4773L24.8835 26H23.2699L18.8608 20.6818C18.4517 20.1894 18.0805 19.7424 17.7472 19.3409C17.4138 18.9394 17.1487 18.5436 16.9517 18.1534C16.7547 17.7633 16.6562 17.3409 16.6562 16.8864C16.6562 16.3636 16.7718 15.9053 17.0028 15.5114C17.2377 15.1136 17.5653 14.8049 17.9858 14.5852C18.41 14.3617 18.9063 14.25 19.4744 14.25C20.0578 14.25 20.5597 14.3636 20.9801 14.5909C21.4006 14.8144 21.7244 15.1117 21.9517 15.483C22.179 15.8504 22.2926 16.25 22.2926 16.6818C22.2926 17.2386 22.1544 17.7216 21.8778 18.1307C21.6013 18.5398 21.2244 18.9205 20.7472 19.2727L18.429 21C17.9063 21.3864 17.5521 21.7614 17.3665 22.125C17.1809 22.4886 17.0881 22.75 17.0881 22.9091C17.0881 23.2727 17.1828 23.6117 17.3722 23.9261C17.5616 24.2405 17.8286 24.4943 18.1733 24.6875C18.518 24.8807 18.9214 24.9773 19.3835 24.9773C19.8229 24.9773 20.2509 24.8845 20.6676 24.6989C21.0843 24.5095 21.4612 24.2367 21.7983 23.8807C22.1392 23.5246 22.4081 23.0966 22.6051 22.5966C22.8059 22.0966 22.9062 21.5341 22.9062 20.9091H24.2017C24.2017 21.6818 24.1127 22.3125 23.9347 22.8011C23.7566 23.2898 23.5559 23.6723 23.3324 23.9489C23.1089 24.2254 22.929 24.4318 22.7926 24.5682C22.7472 24.625 22.7055 24.6818 22.6676 24.7386C22.6297 24.7955 22.5881 24.8523 22.5426 24.9091C22.1676 25.3295 21.6941 25.6439 21.1222 25.8523C20.5502 26.0568 19.9858 26.1591 19.429 26.1591ZM26.5497 26V14.3636H30.4815C31.3944 14.3636 32.1406 14.5284 32.7202 14.858C33.3035 15.1837 33.7353 15.625 34.0156 16.1818C34.2959 16.7386 34.4361 17.3598 34.4361 18.0455C34.4361 18.7311 34.2959 19.3542 34.0156 19.9148C33.7391 20.4754 33.3111 20.9223 32.7315 21.2557C32.152 21.5852 31.4096 21.75 30.5043 21.75H27.6861V20.5H30.4588C31.0838 20.5 31.5857 20.392 31.9645 20.1761C32.3433 19.9602 32.6179 19.6686 32.7884 19.3011C32.9626 18.9299 33.0497 18.5114 33.0497 18.0455C33.0497 17.5795 32.9626 17.1629 32.7884 16.7955C32.6179 16.428 32.3414 16.1402 31.9588 15.9318C31.5762 15.7197 31.0687 15.6136 30.4361 15.6136H27.9588V26H26.5497Z" fill="black"/>
</svg>
