<svg width="40" height="40" viewBox="0 0 40 40" fill="none" xmlns="http://www.w3.org/2000/svg">
<rect width="40" height="40" rx="20" fill="#32E6FF"/>
<path d="M12.2642 14.3636H13.6733V22.0682C13.6733 22.8636 13.4858 23.5739 13.1108 24.1989C12.7396 24.8201 12.215 25.3106 11.5369 25.6705C10.8589 26.0265 10.0634 26.2045 9.15057 26.2045C8.23769 26.2045 7.44223 26.0265 6.7642 25.6705C6.08617 25.3106 5.55966 24.8201 5.18466 24.1989C4.81345 23.5739 4.62784 22.8636 4.62784 22.0682V14.3636H6.03693V21.9545C6.03693 22.5227 6.16193 23.0284 6.41193 23.4716C6.66193 23.911 7.01799 24.2576 7.48011 24.5114C7.94602 24.7614 8.50284 24.8864 9.15057 24.8864C9.7983 24.8864 10.3551 24.7614 10.821 24.5114C11.2869 24.2576 11.643 23.911 11.8892 23.4716C12.1392 23.0284 12.2642 22.5227 12.2642 21.9545V14.3636ZM22.8509 17.2727C22.7827 16.697 22.5062 16.25 22.0213 15.9318C21.5365 15.6136 20.9418 15.4545 20.2372 15.4545C19.7221 15.4545 19.2713 15.5379 18.8849 15.7045C18.5024 15.8712 18.2031 16.1004 17.9872 16.392C17.7751 16.6837 17.669 17.0152 17.669 17.3864C17.669 17.697 17.7429 17.964 17.8906 18.1875C18.0421 18.4072 18.2353 18.5909 18.4702 18.7386C18.705 18.8826 18.9512 19.0019 19.2088 19.0966C19.4664 19.1875 19.7031 19.2614 19.919 19.3182L21.1009 19.6364C21.4039 19.7159 21.741 19.8258 22.1122 19.9659C22.4872 20.1061 22.8452 20.2973 23.1861 20.5398C23.5308 20.7784 23.8149 21.0852 24.0384 21.4602C24.2618 21.8352 24.3736 22.2955 24.3736 22.8409C24.3736 23.4697 24.2088 24.0379 23.8793 24.5455C23.5535 25.053 23.0762 25.4564 22.4474 25.7557C21.8224 26.0549 21.063 26.2045 20.169 26.2045C19.3357 26.2045 18.6141 26.0701 18.0043 25.8011C17.3982 25.5322 16.9209 25.1572 16.5724 24.6761C16.2277 24.1951 16.0327 23.6364 15.9872 23H17.4418C17.4796 23.4394 17.6274 23.803 17.8849 24.0909C18.1463 24.375 18.4759 24.5871 18.8736 24.7273C19.2751 24.8636 19.7069 24.9318 20.169 24.9318C20.7069 24.9318 21.1899 24.8447 21.6179 24.6705C22.0459 24.4924 22.3849 24.2462 22.6349 23.9318C22.8849 23.6136 23.0099 23.2424 23.0099 22.8182C23.0099 22.4318 22.902 22.1174 22.6861 21.875C22.4702 21.6326 22.1861 21.4356 21.8338 21.2841C21.4815 21.1326 21.1009 21 20.6918 20.8864L19.2599 20.4773C18.3509 20.2159 17.6312 19.8428 17.1009 19.358C16.5705 18.8731 16.3054 18.2386 16.3054 17.4545C16.3054 16.803 16.4815 16.2348 16.8338 15.75C17.1899 15.2614 17.6671 14.8826 18.2656 14.6136C18.8679 14.3409 19.5402 14.2045 20.2827 14.2045C21.0327 14.2045 21.6993 14.339 22.2827 14.608C22.866 14.8731 23.3281 15.2367 23.669 15.6989C24.0137 16.161 24.1955 16.6856 24.2145 17.2727H22.8509ZM30.2812 26H26.6903V14.3636H30.4403C31.5691 14.3636 32.535 14.5966 33.3381 15.0625C34.1411 15.5246 34.7566 16.1894 35.1847 17.0568C35.6127 17.9205 35.8267 18.9545 35.8267 20.1591C35.8267 21.3712 35.6108 22.4148 35.179 23.2898C34.7472 24.161 34.1184 24.8314 33.2926 25.3011C32.4669 25.767 31.4631 26 30.2812 26ZM28.0994 24.75H30.1903C31.1525 24.75 31.9498 24.5644 32.5824 24.1932C33.215 23.822 33.6866 23.2936 33.9972 22.608C34.3078 21.9223 34.4631 21.1061 34.4631 20.1591C34.4631 19.2197 34.3097 18.411 34.0028 17.733C33.696 17.0511 33.2377 16.5284 32.6278 16.1648C32.018 15.7973 31.2585 15.6136 30.3494 15.6136H28.0994V24.75Z" fill="black"/>
</svg>
